<?xml version="1.0" encoding="UTF-8"?>
<svg width="1200pt" height="1200pt" version="1.1" viewBox="0 0 1200 1200" xmlns="http://www.w3.org/2000/svg">
 <path fill="#06E5FF" d="m1056.1 360.3-0.027343-0.054687c-58.305-111.18-155.21-197.25-272.51-242.01-117.29-44.766-246.9-45.148-364.46-1.082-117.56 44.07-214.97 129.55-273.94 240.39-0.47656 0.73438-0.91016 1.4961-1.3008 2.2773l-0.0625 0.54297v0.003907c-58.422 109.88-74.484 237.37-45.137 358.3 0.15234 4.0078 1.168 7.9375 2.9766 11.523 28.66 110.36 93.148 208.08 183.34 277.84 90.191 69.758 200.99 107.6 315.01 107.59 114.02-0.003906 224.81-37.859 315-107.62 90.184-69.77 154.66-167.5 183.31-277.86 1.8047-3.5859 2.8125-7.5156 2.9648-11.523 29.34-120.94 13.266-248.44-45.172-358.31zm-69.816-7.9219v-0.003906c-61.574 17.672-124.41 30.609-187.95 38.711-11.535-84.062-41.129-164.63-86.746-236.18 113.31 28.566 211.52 99.164 274.7 197.46zm-386.32 707c-52.836 0-109.78-92.887-139.2-241.52 46.016 4.1055 92.543 6.7852 139.2 6.7852 46.664 0 93.191-2.6797 139.2-6.7852-29.414 148.64-86.359 241.52-139.2 241.52zm0-918.75c54.594 0 113.54 99.262 141.99 256.66-94.441 9-189.53 8.9961-283.97-0.007812 28.445-157.39 87.387-256.66 141.98-256.66zm159.38 459.38c0.066406 53.723-3.5234 107.39-10.738 160.62-98.855 9.6875-198.42 9.6875-297.27 0-7.2148-53.234-10.805-106.9-10.738-160.62-0.070312-49.141 2.875-98.238 8.8242-147.02 48.789 4.8711 99.031 7.8906 150.55 7.8906 51.582 0 101.86-3.0195 150.55-7.8828 5.9492 48.777 8.8945 97.871 8.8242 147.01zm-271-445.09c-45.617 71.543-75.211 152.11-86.746 236.17-63.52-8.0781-126.32-21.082-187.82-38.902 63.184-98.203 161.34-168.72 274.57-197.27zm-302.51 247.61c67.828 20.445 137.24 35.227 207.51 44.188-12.027 101.97-12.012 205 0.046876 306.97-82.555-11.023-163.8-30.293-242.5-57.523-21.469-99.035-9.168-202.41 34.945-293.64zm-15.227 359.39c75.555 23.398 153.04 40.055 231.53 49.777 11.664 83.082 41.066 162.69 86.207 233.41-71.836-18.156-138.23-53.383-193.55-102.68-55.312-49.301-97.914-111.22-124.19-180.5zm540.98 283.19v-0.003906c45.141-70.719 74.543-150.32 86.207-233.4 78.477-9.6133 155.94-26.219 231.46-49.613-26.285 69.246-68.887 131.13-124.19 180.4-55.301 49.266-121.67 84.469-193.48 102.62zm337.45-348.89c-78.668 27.359-159.92 46.625-242.5 57.488 6.1133-51 9.1367-102.32 9.0547-153.69 0.082031-51.23-2.9258-102.41-9.0078-153.28 70.289-8.9883 139.73-23.688 207.63-43.945 44.023 91.184 56.277 194.47 34.816 293.43z"/>
</svg>
